<svg id="car-stop" enable-background="new 0 0 300 300" height="512" viewBox="0 0 300 300" width="512" xmlns="http://www.w3.org/2000/svg"><circle cx="173.614" cy="138" fill="#ffce56" r="86"/><path d="" style="fill:#edebdc;stroke:#4c241d;stroke-width:8;stroke-linecap:round;stroke-linejoin:round;stroke-miterlimit:10"/><path d="m115.614 136v-30.223c0-7.757 6.334-14.02 14.09-13.932 7.633.086 13.776 6.299 13.776 13.932v15.023l84.133 13.2v70.029c0 22.076-17.896 39.971-39.971 39.971h-46.592c-20.051 0-37.377-12.815-43.723-31.058-4.116-11.832-10.132-22.915-16.68-33.594l-33.356-44.992c-4.411-5.95-3.799-14.234 1.438-19.471 5.959-5.959 15.663-5.816 21.445.315l30.515 32.363c5.927 4.939 14.925.724 14.925-6.991z" fill="#edebdc"/><path d="m187.642 248h-46.592c-21.391 0-40.479-13.561-47.5-33.743-3.443-9.896-8.448-19.977-16.221-32.668l-33.251-44.85c-5.548-7.484-4.764-18.095 1.823-24.682 3.654-3.653 8.52-5.626 13.676-5.547 5.166.076 9.963 2.188 13.507 5.947l30.328 32.165c1.536 1.186 3.491 1.402 5.265.57 1.839-.861 2.937-2.588 2.937-4.618v-34.794c0-4.829 1.891-9.357 5.324-12.752s7.985-5.252 12.811-5.18c9.777.11 17.731 8.154 17.731 17.932v11.601l80.753 12.67c1.946.305 3.38 1.982 3.38 3.952v70.028c.001 24.243-19.725 43.969-43.971 43.969zm-128.349-133.493c-2.923 0-5.664 1.135-7.735 3.207-3.806 3.806-4.259 9.937-1.053 14.26l33.356 44.992c.07.094.135.191.197.292 8.138 13.271 13.396 23.872 17.048 34.371 5.903 16.969 21.955 28.371 39.944 28.371h46.592c19.835 0 35.972-16.137 35.972-35.972v-66.607l-80.753-12.67c-1.946-.305-3.38-1.982-3.38-3.952v-15.022c0-5.416-4.406-9.872-9.821-9.933-2.708-.011-5.195.989-7.096 2.87-1.902 1.88-2.949 4.389-2.949 7.063v34.794c0 5.138-2.891 9.684-7.543 11.863-4.654 2.179-9.997 1.49-13.942-1.799-.123-.103-.24-.212-.35-.329l-30.515-32.363c-2.048-2.172-4.819-3.392-7.804-3.436-.057 0-.113 0-.168 0z" fill="#4c241d"/><path d="m157.904 172h-.715c-7.571 0-13.709-6.138-13.709-13.709v-52.581c0-7.571 6.138-13.709 13.709-13.709h.715c7.571 0 13.709 6.138 13.709 13.709v52.581c.001 7.571-6.137 13.709-13.709 13.709z" fill="#edebdc"/><path d="m157.904 176h-.714c-9.765 0-17.709-7.944-17.709-17.709v-52.581c0-9.765 7.944-17.709 17.709-17.709h.714c9.765 0 17.709 7.944 17.709 17.709v52.581c.001 9.765-7.943 17.709-17.709 17.709zm-.714-80c-5.354 0-9.709 4.355-9.709 9.709v52.581c0 5.354 4.355 9.709 9.709 9.709h.714c5.354 0 9.709-4.355 9.709-9.709v-52.581c0-5.354-4.355-9.709-9.709-9.709z" fill="#4c241d"/><path d="m185.614 176c-7.732 0-14-6.268-14-14v-44c0-7.732 6.268-14 14-14 7.732 0 14 6.268 14 14v44c0 7.732-6.268 14-14 14z" fill="#edebdc"/><path d="m185.614 180c-9.925 0-18-8.075-18-18v-44c0-9.925 8.075-18 18-18s18 8.075 18 18v44c0 9.925-8.075 18-18 18zm0-72c-5.514 0-10 4.486-10 10v44c0 5.514 4.486 10 10 10s10-4.486 10-10v-44c0-5.514-4.486-10-10-10z" fill="#4c241d"/><path d="m213.614 176c-7.732 0-14-6.268-14-14v-36.178c0-7.732 6.268-14 14-14 7.732 0 14 6.268 14 14v36.178c0 7.732-6.268 14-14 14z" fill="#edebdc"/><path d="m213.614 180c-9.925 0-18-8.075-18-18v-36.178c0-9.925 8.075-18 18-18s18 8.075 18 18v36.178c0 9.925-8.075 18-18 18zm0-64.178c-5.514 0-10 4.486-10 10v36.178c0 5.514 4.486 10 10 10s10-4.486 10-10v-36.178c0-5.514-4.486-10-10-10z" fill="#4c241d"/><path d="m147.614 208c-2.209 0-4-1.791-4-4v-12.371c0-13.234-10.766-24-24-24-2.209 0-4-1.791-4-4s1.791-4 4-4c17.645 0 32 14.355 32 32v12.371c0 2.209-1.791 4-4 4z" fill="#4c241d"/><path d="m129.904 172h-.715c-7.571 0-13.709-6.138-13.709-13.709v-52.581c0-7.571 6.138-13.709 13.709-13.709h.715c7.571 0 13.709 6.138 13.709 13.709v52.581c.001 7.571-6.137 13.709-13.709 13.709z" fill="#edebdc"/><path d="m129.904 176h-.714c-9.765 0-17.709-7.944-17.709-17.709v-52.581c0-9.765 7.944-17.709 17.709-17.709h.714c9.765 0 17.709 7.944 17.709 17.709v52.581c.001 9.765-7.943 17.709-17.709 17.709zm-.714-80c-5.354 0-9.709 4.355-9.709 9.709v52.581c0 5.354 4.355 9.709 9.709 9.709h.714c5.354 0 9.709-4.355 9.709-9.709v-52.581c0-5.354-4.355-9.709-9.709-9.709z" fill="#4c241d"/></svg>