<svg id="Capa_1" enable-background="new 0 0 511.979 511.979" height="512" viewBox="0 0 511.979 511.979" width="512" xmlns="http://www.w3.org/2000/svg"><g><g><g fill="#dd636e"><circle cx="81.435" cy="246.029" r="34.903"/><circle cx="358.85" cy="372.119" r="34.903"/><circle cx="215.682" cy="318.887" r="34.903"/></g><path d="m213.666 353.737c-4.182-.238-8.383-1.239-12.426-3.076-17.548-7.976-25.306-28.663-17.33-46.211s28.667-25.315 46.215-17.339c4.043 1.837 7.559 4.345 10.488 7.339-13.977-.81-27.651 6.91-33.789 20.415-6.139 13.506-2.959 28.875 6.842 38.872z" fill="#da4a54"/><path d="m79.418 280.88c-4.182-.238-8.383-1.239-12.426-3.076-17.548-7.976-25.306-28.663-17.33-46.211s28.667-25.315 46.215-17.339c4.043 1.837 7.559 4.345 10.488 7.339-13.977-.81-27.651 6.91-33.789 20.415-6.139 13.505-2.959 28.874 6.842 38.872z" fill="#da4a54"/><path d="m356.833 406.97c-4.182-.238-8.383-1.239-12.426-3.076-17.548-7.976-25.306-28.663-17.33-46.211s28.667-25.315 46.215-17.339c4.043 1.837 7.559 4.345 10.488 7.339-13.977-.81-27.651 6.91-33.789 20.415-6.139 13.506-2.959 28.875 6.842 38.872z" fill="#da4a54"/><path d="m431.917 234.071c32.633-71.798-6.844-159.968-88.174-196.934s-173.717-8.73-206.35 63.068" fill="#b7e4fc"/><path d="m388.142 65.683c-65.926-8.902-129.682 20.64-155.639 77.75l-95.109-43.229c32.633-71.801 125.018-100.037 206.346-63.072 16.638 7.562 31.527 17.267 44.402 28.551z" fill="#97ccfa"/><g fill="#f5de87"><path d="m174.43 406.22 2.581 1.173c9.104 4.138 13.45 14.619 9.944 23.985l-10.782 28.809c-3.862 10.319-15.656 15.209-25.686 10.65l-6.414-2.915c-10.031-4.559-14.102-16.66-8.867-26.355l14.615-27.067c4.752-8.8 15.505-12.418 24.609-8.28z"/><path d="m267.271 422.404 2.822-.275c9.953-.968 18.957 5.935 20.604 15.799l5.067 30.341c1.815 10.868-5.954 20.999-16.92 22.066l-7.013.682c-10.966 1.067-20.543-7.377-20.857-18.391l-.877-30.748c-.283-9.995 7.221-18.505 17.174-19.474z"/><path d="m102.12 345.783 1.649 2.307c5.815 8.136 4.338 19.385-3.38 25.744l-23.742 19.559c-8.504 7.006-21.163 5.343-27.57-3.62l-4.097-5.732c-6.407-8.964-3.883-21.479 5.498-27.258l26.19-16.133c8.515-5.246 19.637-3.003 25.452 5.133z"/></g><path d="m295.417 143.459c72.449 32.929 125.796 64.731 152.37 81.607 13.535 8.595 23.728 21.607 28.681 36.856 13.536 41.682 7.822 72.076 7.822 72.076s-19.141 24.291-59.445 41.502c-14.745 6.297-31.251 7.173-46.627 2.628-30.189-8.924-89.228-28.203-161.676-61.132s-125.796-64.731-152.37-81.607c-13.535-8.595-23.728-21.607-28.681-36.856-13.536-41.682-7.822-72.076-7.822-72.076s19.141-24.291 59.445-41.502c14.745-6.297 31.251-7.173 46.627-2.628 30.189 8.923 89.228 28.203 161.676 61.132z" fill="#5e54ac"/><path d="m133.528 275.838c-30.757-16.596-54.339-30.906-69.358-40.448-13.529-8.599-23.726-21.603-28.676-36.857-13.536-41.682-7.824-72.076-7.824-72.076s19.144-24.29 59.447-41.5c14.747-6.3 31.254-7.179 46.625-2.631 17.064 5.04 43.352 13.397 76.081 25.656-6.586 1.685-13.915 6.224-21.368 13.379-28.685 27.502-46.207 57.174-46.207 57.174s-10.833 32.712-12.69 72.407c-.487 10.31.908 18.826 3.97 24.896z" fill="#453d81"/><path d="m475.938 352.374-456.621-207.543c-10.148-4.613-14.636-16.578-10.023-26.727s16.578-14.636 26.727-10.023l456.621 207.542c10.148 4.613 14.636 16.578 10.023 26.727s-16.579 14.636-26.727 10.024z" fill="#f5de87"/><path d="m145.196 202.045-125.879-57.214c-10.152-4.614-14.637-16.574-10.023-26.727s16.575-14.638 26.727-10.023l125.878 57.214c-10.152-4.614-22.112-.129-26.727 10.023s-.129 22.113 10.024 26.727z" fill="#f1ce73"/></g><g><path d="m180.119 400.559-2.581-1.173c-12.642-5.748-27.714-.675-34.31 11.543l-14.615 27.066c-3.478 6.443-4.135 14.118-1.8 21.058s7.497 12.657 14.162 15.687l6.414 2.915c3.472 1.578 7.223 2.369 10.978 2.369 3.455 0 6.913-.67 10.154-2.014 6.764-2.805 12.115-8.346 14.68-15.203l10.782-28.808c4.867-13.006-1.223-27.694-13.864-33.44zm-.184 28.182-10.782 28.808c-1.131 3.023-3.396 5.368-6.378 6.605-2.982 1.236-6.243 1.181-9.18-.154l-6.414-2.915c-2.939-1.336-5.124-3.756-6.153-6.815s-.751-6.308.782-9.148l14.615-27.066c2.067-3.828 6.048-6.042 10.168-6.042 1.592 0 3.206.331 4.737 1.027l2.581 1.173c5.493 2.496 8.139 8.877 6.024 14.527z"/><path d="m298.093 436.685c-2.286-13.697-14.905-23.369-28.726-22.028l-2.822.274s0 0-.001 0c-13.821 1.345-24.338 13.272-23.942 27.153l.876 30.747c.209 7.319 3.479 14.295 8.971 19.137 4.852 4.279 11.138 6.627 17.562 6.627.847 0 1.697-.041 2.545-.124l7.012-.682c7.288-.709 14.022-4.448 18.478-10.258 4.456-5.811 6.319-13.285 5.113-20.507zm-11.949 41.719c-1.964 2.561-4.815 4.144-8.027 4.456l-7.012.682c-3.211.315-6.315-.69-8.735-2.825-2.421-2.135-3.805-5.088-3.897-8.314l-.876-30.747c-.172-6.03 4.397-11.211 10.401-11.796l2.822-.274c6.013-.59 11.487 3.619 12.48 9.569l5.067 30.339c.53 3.185-.259 6.349-2.223 8.91z"/><path d="m108.229 341.417c-8.076-11.297-23.662-14.441-35.486-7.158l-26.189 16.133c-6.234 3.84-10.64 10.159-12.087 17.336-1.448 7.177.164 14.71 4.422 20.667l4.097 5.732c4.258 5.957 10.863 9.919 18.123 10.873 1.141.15 2.284.224 3.425.224 6.117 0 12.127-2.125 16.89-6.049l23.741-19.558c10.718-8.829 12.788-24.595 4.713-35.892zm-12.601 26.623-23.741 19.558c-2.491 2.052-5.627 2.951-8.826 2.531-3.2-.42-5.996-2.098-7.873-4.723l-4.097-5.732c-1.877-2.626-2.559-5.815-1.921-8.979s2.503-5.839 5.251-7.531l26.189-16.134c1.868-1.151 3.952-1.702 6.017-1.702 3.613 0 7.167 1.689 9.399 4.812l1.649 2.306c3.508 4.909 2.609 11.758-2.047 15.594z"/><path d="m510.199 324.274c-2.599-6.924-7.737-12.421-14.468-15.478l-3.036-1.38c-.879-15.823-3.932-31.884-9.107-47.813-5.461-16.812-16.753-31.325-31.792-40.863-1.66-1.054-3.442-2.178-5.336-3.361 7.045-26.995 5.633-55.776-4.166-83.617-1.375-3.907-5.658-5.958-9.564-4.585-3.907 1.375-5.96 5.657-4.585 9.564 8.256 23.458 9.897 47.593 4.873 70.388-29.374-17.725-75.744-43.788-134.5-70.493-58.842-26.74-108.937-44.526-141.562-54.985 38.548-52.262 115.565-68.639 183.685-37.677 32.266 14.662 58.357 37.791 75.453 66.888 1.397 2.378 3.901 3.702 6.473 3.701 1.291 0 2.599-.333 3.792-1.035 3.571-2.098 4.765-6.694 2.667-10.265-18.67-31.774-47.087-56.999-82.179-72.945-76.366-34.71-163.274-14.555-204.932 46.636-2.136-.648-4.153-1.251-6.037-1.808-17.095-5.062-35.456-4.024-51.697 2.919-15.426 6.58-29.522 14.85-42.003 24.584l-3.043-1.383c-6.733-3.065-14.253-3.322-21.178-.725-6.922 2.597-12.418 7.735-15.474 14.463-6.322 13.89-.159 30.336 13.742 36.663l3.031 1.378c.88 15.825 3.932 31.884 9.106 47.808 3.174 9.772 8.332 18.759 15.042 26.455-.192.39-.386.779-.566 1.175-9.673 21.282-.225 46.468 21.062 56.144 5.715 2.598 11.71 3.837 17.616 3.837 12.247 0 24.087-5.349 32.216-14.957 17.679 9.866 38.356 20.85 61.626 32.296-2.972 9.103-2.786 18.871.625 27.967 3.976 10.603 11.845 19.023 22.155 23.708 5.6 2.545 11.554 3.824 17.526 3.824 5.024 0 10.061-.905 14.905-2.722 9.097-3.412 16.58-9.695 21.482-17.92 23.93 10.008 45.795 18.361 64.842 25.189-2.807 18.442 6.835 36.874 24.402 44.858 5.601 2.546 11.556 3.824 17.53 3.824 5.023 0 10.06-.905 14.904-2.72 10.606-3.975 19.028-11.843 23.714-22.153.179-.395.344-.794.511-1.193 10.216-.005 20.381-2.043 29.827-6.079 15.432-6.594 29.525-14.861 41.996-24.574l3.047 1.385c3.7 1.681 7.578 2.475 11.401 2.475 10.528 0 20.617-6.036 25.257-16.229 3.061-6.726 3.315-14.245.717-21.169zm-420.126-232.413c13.042-5.576 27.796-6.403 41.553-2.33 28.795 8.506 87.96 27.71 160.687 60.76 72.608 33.001 126.049 64.983 151.446 81.113 12.101 7.675 21.18 19.335 25.564 32.833 3.909 12.033 6.507 24.123 7.764 36.085l-419.3-190.578c8.197-5.746 18.993-12.213 32.286-17.883zm-19.964 179.113c-12.586-5.721-18.762-19.827-14.939-32.718 1.614 1.213 3.272 2.373 4.986 3.461 9.596 6.094 23.147 14.424 40.173 24.203-7.898 7.538-19.785 9.797-30.22 5.054zm155.195 73.564c-6.851 2.569-14.294 2.317-20.958-.712-6.663-3.028-11.747-8.469-14.317-15.321-1.955-5.213-2.271-10.767-.979-16.062 7.874 3.765 16 7.565 24.391 11.378 8.391 3.814 16.595 7.437 24.607 10.891-3.137 4.456-7.53 7.871-12.744 9.826zm143.164 53.231c-6.853 2.568-14.299 2.315-20.963-.713-10.435-4.743-16.55-15.184-16.064-26.09 18.571 6.399 33.753 11.128 44.646 14.346 1.95.576 3.918 1.066 5.896 1.484-3.17 5.017-7.86 8.853-13.515 10.973zm127.363-58.534c-2.9 6.368-10.437 9.199-16.799 6.309l-299.286-136.034c-3.769-1.714-8.217-.046-9.931 3.724-1.714 3.771-.047 8.217 3.724 9.931l280.628 127.553c-8.195 5.737-18.985 12.198-32.276 17.878-13.035 5.569-27.794 6.396-41.555 2.33-28.809-8.51-87.993-27.72-160.688-60.76-72.61-32.997-126.055-64.981-151.453-81.111-12.105-7.683-21.185-19.344-25.567-32.835-3.908-12.029-6.506-24.117-7.763-36.08l111.375 50.625c3.77 1.713 8.217.046 9.931-3.724 1.714-3.771.047-8.217-3.724-9.931l-130.011-59.095c-6.37-2.899-9.196-10.434-6.298-16.801 1.401-3.085 3.919-5.439 7.088-6.628 3.168-1.188 6.612-1.071 9.699.334l456.601 207.531c3.084 1.401 5.439 3.92 6.629 7.092 1.191 3.173 1.075 6.615-.324 9.692z"/></g></g></svg>