<svg id="Capa_1" enable-background="new 0 0 512 512" height="512" viewBox="0 0 512 512" width="512" xmlns="http://www.w3.org/2000/svg"><g><g><path clip-rule="evenodd" d="m75.479 153.64-21.43 92.382v61.002h-44.049v47.736h78.802c9.524-9.865 22.875-15.988 37.643-15.988s28.119 6.123 37.615 15.988h42.462 44.928.028 44.872 42.462c9.496-9.865 22.847-15.988 37.615-15.988 14.797 0 28.119 6.123 37.643 15.988h87.93v-38.126c0-3.6-.283-7.172-.822-10.63h-64.118c-16.497 0-30.018-13.493-30.018-29.991v-29.991h-114.121-96.093-79.68v-72.709h79.68 96.093 70.213l-13.039-25.54c-12.245-20.466-22.252-23.726-46.487-23.726h-26.108-140.964-26.106c-20.806-.001-29.253 4.988-34.951 29.593z" fill="#d5ea7a" fill-rule="evenodd"/></g><g><path clip-rule="evenodd" d="m27.234 246.022c-9.496 0-17.234 7.739-17.234 17.206v43.796h44.05v-61.002z" fill="#ffcd69" fill-rule="evenodd"/></g><g><path clip-rule="evenodd" d="m117.148 173.313h79.68v72.709h-79.68z" fill="#a0c8ff" fill-rule="evenodd"/></g><g><path clip-rule="evenodd" d="m196.828 173.313h96.093v72.709h-96.093z" fill="#a0c8ff" fill-rule="evenodd"/></g><g><path clip-rule="evenodd" d="m292.921 173.313v72.709h114.121 24.321c-30.415 0-29.451-2.126-47.394-31.975l-20.466-40.734z" fill="#a0c8ff" fill-rule="evenodd"/></g><g><path clip-rule="evenodd" d="m407.041 246.022v29.991c0 16.498 13.521 29.991 30.018 29.991h64.118c-5.159-33.846-34.582-59.982-69.816-59.982z" fill="#ffcd69" fill-rule="evenodd"/></g><g><path clip-rule="evenodd" d="m338.813 354.76h-174.753c9.071 9.411 14.626 22.167 14.626 36.255 0 2.381-.17 4.734-.482 7.03h146.463c-.312-2.296-.482-4.649-.482-7.03.001-14.088 5.585-26.844 14.628-36.255z" fill="#dfedff" fill-rule="evenodd"/></g><g><path clip-rule="evenodd" d="m126.445 338.772c-14.768 0-28.119 6.123-37.643 15.988-9.042 9.411-14.598 22.167-14.598 36.255 0 2.381.142 4.734.454 7.03 3.43 25.54 25.313 45.213 51.788 45.213s48.33-19.673 51.76-45.213c.312-2.296.482-4.649.482-7.03 0-14.088-5.556-26.844-14.626-36.255-9.498-9.865-22.849-15.988-37.617-15.988z" fill="#89a7bc" fill-rule="evenodd"/></g><g><path clip-rule="evenodd" d="m338.813 354.76c-9.042 9.411-14.626 22.167-14.626 36.255 0 2.381.17 4.734.482 7.03 3.43 25.54 25.313 45.213 51.76 45.213 26.475 0 48.358-19.673 51.788-45.213.312-2.296.482-4.649.482-7.03 0-14.088-5.584-26.844-14.626-36.255-9.524-9.865-22.847-15.988-37.643-15.988-14.771 0-28.122 6.123-37.617 15.988z" fill="#89a7bc" fill-rule="evenodd"/></g><g><path clip-rule="evenodd" d="m414.071 354.76c9.042 9.411 14.626 22.167 14.626 36.255 0 2.381-.17 4.734-.482 7.03h73.785v-43.285z" fill="#dfedff" fill-rule="evenodd"/></g><g><path clip-rule="evenodd" d="m88.802 354.76h-78.802v26.079c0 9.468 7.738 17.206 17.234 17.206h47.423c-.312-2.296-.454-4.649-.454-7.03 0-14.088 5.556-26.844 14.599-36.255z" fill="#dfedff" fill-rule="evenodd"/></g><g><path d="m308.058 296.514h-101.99c-5.522 0-10 4.477-10 10s4.478 10 10 10h101.989c5.522 0 10-4.477 10-10s-4.477-10-9.999-10z"/><path d="m126.445 380.987c-5.522 0-10 4.477-10 10v.057c0 5.523 4.478 9.972 10 9.972s10-4.505 10-10.028-4.477-10.001-10-10.001z"/><path d="m376.428 380.987c-5.522 0-10 4.477-10 10v.057c0 5.523 4.478 9.972 10 9.972s10-4.505 10-10.028-4.478-10.001-10-10.001z"/><path d="m251.45 344.76c-5.522 0-10 4.477-10 10s4.478 10 10 10h.028c5.522 0 9.985-4.477 9.985-10s-4.49-10-10.013-10z"/><path d="m431.362 236.022c-12.146 0-18.518-.368-21.873-2.459-3.573-2.227-7.311-8.502-13.503-18.898-1.02-1.712-36.988-71.444-36.988-71.444-.102-.198-.209-.392-.323-.583-14.637-24.464-28.817-28.592-55.067-28.592h-16.108v-35.304h29.401c5.522 0 10-4.477 10-10s-4.478-10-10-10h-219.765c-5.522 0-10 4.477-10 10s4.478 10 10 10h29.4v35.305h-16.106c-26.951 0-38.229 9.422-44.691 37.334l-19.635 84.642h-18.87c-15.017-.001-27.234 12.204-27.234 27.206v117.61c0 15.002 12.217 27.207 27.234 27.207h39.357c7.428 26.065 31.439 45.213 59.854 45.213s52.426-19.148 59.853-45.213h130.276c7.427 26.065 31.438 45.213 59.853 45.213 28.428 0 52.45-19.148 59.881-45.213h65.692c5.522 0 10-4.477 10-10v-81.412c0-44.45-36.174-80.612-80.638-80.612zm-14.321 20h14.321c26.192 0 48.554 16.687 57.016 39.981h-51.318c-11.038 0-20.019-8.968-20.019-19.991zm-60.012-72.709s20.716 39.81 21.775 41.586c2.521 4.233 4.714 7.91 6.795 11.123h-82.678v-52.709zm-210.493-104.571h120.964v35.305h-120.964zm-126.536 184.487c0-3.974 3.245-7.207 7.234-7.207h16.816v41.002h-24.05zm44.278 124.816h-37.044c-3.989 0-7.234-3.233-7.234-7.207v-16.078h50.031c-3.334 7.136-5.361 14.998-5.753 23.285zm62.167 45.213c-23.292 0-42.242-18.95-42.242-42.243 0-23.292 18.95-42.243 42.242-42.243s42.241 18.95 42.241 42.243c.001 23.293-18.949 42.243-42.241 42.243zm249.983 0c-23.292 0-42.241-18.95-42.241-42.243 0-23.292 18.949-42.243 42.241-42.243 23.308 0 42.27 18.95 42.27 42.243-.001 23.293-18.963 42.243-42.27 42.243zm115.572-45.213h-53.378c-.391-8.287-2.419-16.15-5.755-23.286h59.133zm0-43.285h-73.958c-11.037-9.931-25.63-15.987-41.615-15.987-15.977 0-30.563 6.056-41.595 15.987h-38.482c-5.522 0-10 4.477-10 10s4.478 10 10 10h23.663c-3.334 7.136-5.361 14.999-5.752 23.286h-125.65c-.391-8.287-2.418-16.15-5.752-23.286h23.663c5.522 0 10-4.477 10-10s-4.478-10-10-10h-38.482c-11.032-9.931-25.618-15.987-41.595-15.987s-30.563 6.056-41.596 15.987h-64.849v-27.736h34.05c5.522 0 10-4.477 10-10v-59.858l21.172-91.27c4.593-19.835 8.877-21.85 25.208-21.85h193.178c22.508 0 28.24 2.786 37.736 18.579l5.463 10.688h-229.66c-5.522 0-10 4.477-10 10v72.709c0 5.523 4.478 10 10 10h279.894v19.991c0 22.051 17.952 39.991 40.019 39.991h54.924c.002.211.016.419.016.63zm-209.079-161.447v52.709h-76.093v-52.709zm-96.093 0v52.709h-59.681v-52.709z"/></g></g></svg>