<svg id="filled_outline" height="512" viewBox="0 0 512 512" width="512" xmlns="http://www.w3.org/2000/svg" data-name="filled outline"><path d="m488 136v264h-464v-264a40.0017 40.0017 0 0 1 40-40h384a40.0017 40.0017 0 0 1 40 40z" fill="#f5714f"/><path d="m448 96h-384a40 40 0 0 0 -40 40v80h353.87048a8 8 0 0 1 6.85994 12.116l-57.46084 95.768a8 8 0 0 0 6.85994 12.116h153.87048v-200a40 40 0 0 0 -40-40z" fill="#ef5e3b"/><g fill="#9ce6ed"><path d="m24 136h288l-32 56h-256z"/><path d="m488 136h-112l-32 56h144z"/><path d="m112 256h224l-32 56h-192z"/><path d="m488 232v80h-120l19.2-32 9.6-16 19.2-32z"/></g><circle cx="120" cy="384" fill="#d1e4ff" r="32"/><path d="m360.56212 351.9999a64.21153 64.21153 0 0 0 -6.54584 48.0001h-172.03256a64.22423 64.22423 0 0 0 -5.98366-47.00795z" fill="#ef5e3b"/><circle cx="416" cy="384" fill="#d1e4ff" r="32"/><path d="m336 248h-224a7.99977 7.99977 0 0 0 -8 8v56a7.99977 7.99977 0 0 0 8 8h192a7.99919 7.99919 0 0 0 6.9458-4.03076l32-56a7.9997 7.9997 0 0 0 -6.9458-11.96924zm-88 16v40h-56v-40zm-128 0h56v40h-56zm179.35742 40h-35.35742v-40h58.21436z"/><path d="m48 256h40v16h-40z"/><path d="m48 288h40v16h-40z"/><path d="m48 320h40v16h-40z"/><circle cx="120" cy="384" r="8"/><circle cx="416" cy="384" r="8"/><path d="m448 88h-384a48.05436 48.05436 0 0 0 -48 48v264a7.99977 7.99977 0 0 0 8 8h64.02185a39.95631 39.95631 0 0 0 63.9563 0h232.0437a39.95738 39.95738 0 0 0 63.97815-.02777v.02777h40a7.99977 7.99977 0 0 0 8-8v-264a48.05436 48.05436 0 0 0 -48-48zm-90.21436 96 22.85694-40h27.35742v40zm66.21436-40h56v40h-56zm-125.78564 0-22.85694 40h-35.35742v-40zm-74.21436 40h-56v-40h56zm-72 0h-56v-40h56zm-72 0h-48v-40h48zm40 224a24 24 0 1 1 24-24 24.0275 24.0275 0 0 1 -24 24zm296 0a24 24 0 1 1 24-24 24.0275 24.0275 0 0 1 -24 24zm39.19507-16a40 40 0 1 0 -78.39014 0h-16.21631a56.58886 56.58886 0 0 1 -.58862-8 55.3823 55.3823 0 0 1 12.2793-34.99609 8.00005 8.00005 0 0 0 -6.24219-13.00391h-94.03711v16h79.50781a71.83246 71.83246 0 0 0 -7.05781 40h-152.89995a71.83246 71.83246 0 0 0 -7.05786-40h15.50781v-16h-30.03711a8.00039 8.00039 0 0 0 -6.24219 13.00391 55.3823 55.3823 0 0 1 12.2793 34.99609 56.58886 56.58886 0 0 1 -.58862 8h-16.21631a40 40 0 1 0 -78.39014 0h-48.80493v-192h248a7.99977 7.99977 0 0 0 6.9458-4.03076l32-56a7.9997 7.9997 0 0 0 -6.9458-11.96924h-278.98743a32.05728 32.05728 0 0 1 30.98743-24h384a32.05728 32.05728 0 0 1 30.98743 24h-102.98743a7.99977 7.99977 0 0 0 -6.9458 4.03076l-32 56a7.9997 7.9997 0 0 0 6.9458 11.96924h136v24h-64a8.0001 8.0001 0 0 0 -6.85986 3.88428l-48 80a8 8 0 0 0 6.85986 12.11572h112v72zm-58.66577-112h43.4707v24h-57.87061zm9.60009-16 14.39991-24h19.4707v24zm49.87061-24h24v64h-24z"/><path d="m240 336h16v16h-16z"/></svg>